<svg xmlns="http://www.w3.org/2000/svg" viewBox="0 0 110.91 150.62"><defs><style>.cls-1{fill:#f2f2f2;}</style></defs><title>Recurso 2</title><g id="Capa_2" data-name="Capa 2"><g id="Capa_1-2" data-name="Capa 1"><path class="cls-1" d="M110.72,150.62H84.94q-37.36,0-74.73,0c-8.09,0-10.1-2-10.11-10C.06,96.45.14,52.29,0,8.13c0-4.75,1-6.91,6.35-7C36.19,1,66,.33,95.86,0c11.27-.12,15,3.78,15,15.17q.06,65.55,0,131.11C110.91,147.37,110.82,148.46,110.72,150.62ZM13.36,61.35c0,17.66.17,35.33-.1,53-.08,5.42,1.31,7.6,7.16,7.55q40.42-.39,80.84,0c5.53,0,7.47-1.58,7.43-7.29-.23-33.29-.09-66.58-.13-99.86,0-9.3-3-12.4-12-12.43-25.36-.07-50.73.13-76.09-.14-5.87-.07-7.24,2.17-7.15,7.56C13.53,26.93,13.36,44.14,13.36,61.35ZM64.47,144l.19-2c12.41,0,24.83.07,37.24-.07,2.17,0,4.32-.91,6.48-1.4l-.44-2.55H92.58v-1.51l16.06-1c-.2-3.87-.36-6.89-.55-10.63H18.5c-15.55,0-15.38,0-15.1,15.69.1,5,1.89,6.86,6.81,6.85,31-.1,62.05,0,93.07-.11,1.65,0,3.29-.8,4.94-1.23L108,144Z"/><path class="cls-1" d="M28.28,60.7c0-12.46.16-24.92-.07-37.38-.09-4.9,1.54-6.95,6.62-6.9q26.16.27,52.34,0c5,0,6.71,2,6.68,6.89q-.22,37.72,0,75.46c0,5-1.62,6.88-6.67,6.82q-26.16-.27-52.34,0c-5.09.06-6.73-1.92-6.65-6.83C28.42,86.08,28.27,73.39,28.28,60.7Zm2.22.16c0,12,.15,24-.08,36-.08,4.52,1.1,6.46,6,6.38q24.42-.4,48.85,0c4.83.07,6.21-1.67,6.18-6.28q-.24-36,0-71.93c0-4.21-1.15-6.16-5.73-6.11q-24.77.27-49.54,0c-4.5,0-5.85,1.71-5.78,6C30.63,36.88,30.5,48.87,30.5,60.86Z"/><path class="cls-1" d="M83.56,132H41.16l0-.88H83.63Z"/><ellipse class="cls-1" cx="24.71" cy="136.85" rx="15.66" ry="0.65"/></g></g></svg>