<svg xmlns="http://www.w3.org/2000/svg" viewBox="0 0 152.17 206.66"><defs><style>.cls-1{fill:#205493;}</style></defs><title>Recurso 1</title><g id="Capa_2" data-name="Capa 2"><g id="Capa_1-2" data-name="Capa 1"><path class="cls-1" d="M151.92,206.65H116.54q-51.27,0-102.54,0C2.91,206.6.15,203.9.14,192.92.09,132.33.19,71.74,0,11.15,0,4.64,1.42,1.67,8.71,1.62,49.65,1.3,90.58.45,131.52,0,147-.16,152.11,5.18,152.13,20.81q.09,89.94,0,179.89C152.17,202.19,152.05,203.69,151.92,206.65ZM18.33,84.17c0,24.24.23,48.47-.14,72.7-.11,7.44,1.8,10.44,9.83,10.36q55.46-.53,110.91,0c7.6.06,10.25-2.16,10.19-10-.3-45.67-.11-91.34-.17-137,0-12.76-4.08-17-16.54-17C97.61,3.06,62.81,3.33,28,3c-8.06-.09-9.93,3-9.82,10.38C18.56,37,18.33,60.56,18.33,84.17ZM88.45,197.56l.26-2.71c17,0,34.07.1,51.1-.09,3,0,5.93-1.25,8.89-1.92l-.6-3.5H127v-2.08l22-1.29c-.27-5.31-.48-9.46-.75-14.59H25.39c-21.34,0-21.11,0-20.72,21.51.13,6.83,2.59,9.42,9.33,9.4,42.57-.14,85.14,0,127.71-.14,2.26,0,4.51-1.1,6.77-1.69l-.38-2.91Z"/><path class="cls-1" d="M38.8,83.29c0-17.1.22-34.21-.09-51.3-.13-6.72,2.1-9.53,9.08-9.46q35.9.38,71.81,0c6.89-.06,9.21,2.7,9.17,9.46q-.33,51.75,0,103.52c0,6.79-2.22,9.44-9.14,9.37q-35.89-.39-71.81,0c-7,.08-9.24-2.64-9.13-9.38C39,118.11,38.79,100.7,38.8,83.29Zm3.05.21c0,16.45.2,32.9-.11,49.34-.11,6.2,1.5,8.86,8.29,8.75q33.51-.54,67,0c6.63.1,8.51-2.29,8.46-8.61q-.33-49.35,0-98.69c0-5.78-1.58-8.45-7.86-8.39q-34,.38-68,0c-6.17-.07-8,2.34-7.93,8.25C42,50.59,41.85,67.05,41.85,83.5Z"/><path class="cls-1" d="M114.65,181.12H56.47l0-1.2h58.3Z"/><ellipse class="cls-1" cx="33.9" cy="187.76" rx="21.49" ry="0.89"/></g></g></svg>